<?xml version="1.0" encoding="UTF-8"?>
<svg width="24" height="24" viewBox="0 0 24 24" xmlns="http://www.w3.org/2000/svg">
  <defs>
    <style>
      .tiktok-black { fill: #000000; }
      .tiktok-cyan { fill: #69C9D0; }
      .tiktok-red { fill: #EE1D52; }
    </style>
  </defs>
  <path class="tiktok-black" d="M19.589 6.686a4.793 4.793 0 0 1-3.77-4.245V2h-3.166v13.672c0 2.088-1.677 3.78-3.743 3.78-2.066 0-3.743-1.691-3.743-3.78s1.677-3.78 3.743-3.78c.304 0 .6.036.884.102v-3.112a7.143 7.143 0 0 0-.884-.052c-3.801 0-6.909 3.136-6.909 6.842 0 3.705 3.108 6.842 6.909 6.842 3.801 0 6.909-3.137 6.909-6.842v-6.842"/>
  <path class="tiktok-cyan" d="M16.05 7.813v-2.46a4.793 4.793 0 0 1-3.77-4.245V2h-3.166"/>
  <path class="tiktok-red" d="M16.05 7.813V12c0 2.088-1.677 3.78-3.743 3.78-.449 0-.88-.074-1.284-.21"/>
</svg>
