<svg viewBox="0 0 24 24" xmlns="http://www.w3.org/2000/svg">
  <path d="M12 8c-2.2 0-4 1.8-4 4s1.8 4 4 4 4-1.8 4-4-1.8-4-4-4zm0 6c-1.1 0-2-.9-2-2s.9-2 2-2 2 .9 2 2-.9 2-2 2z"/>
  <path d="M13.9 4.1l.2 2c.4.1.7.2 1.1.4l1.4-1.4 2.8 2.8-1.4 1.4c.2.3.3.7.4 1.1l2 .2v4l-2 .2c-.1.4-.2.7-.4 1.1l1.4 1.4-2.8 2.8-1.4-1.4c-.3.2-.7.3-1.1.4l-.2 2h-4l-.2-2c-.4-.1-.7-.2-1.1-.4l-1.4 1.4-2.8-2.8 1.4-1.4c-.2-.3-.3-.7-.4-1.1l-2-.2v-4l2-.2c.1-.4.2-.7.4-1.1L4.1 8.7l2.8-2.8 1.4 1.4c.3-.2.7-.3 1.1-.4l.2-2h4zm-2 2h-.2l-.1 1.4c-.9.2-1.7.5-2.4.9l-1.1-1.1-.1.1L7.9 9l1.1 1.1c-.4.7-.7 1.5-.9 2.4L6.7 12v.2l1.4.1c.2.9.5 1.7.9 2.4L7.9 16l2.8 2.8 1.1-1.1c.7.4 1.5.7 2.4.9l.1 1.4h.2l.1-1.4c.9-.2 1.7-.5 2.4-.9l1.1 1.1 2.8-2.8-1.1-1.1c.4-.7.7-1.5.9-2.4l1.4-.1v-.2l-1.4-.1c-.2-.9-.5-1.7-.9-2.4l1.1-1.1-2.8-2.8-1.1 1.1c-.7-.4-1.5-.7-2.4-.9L12 6.1z"/>
</svg>
